<svg version="1.0" xmlns="http://www.w3.org/2000/svg"
 width="64px" height="64px" viewBox="0 0 300.000000 217.000000"
 preserveAspectRatio="xMidYMid meet">
<metadata>
Created by potrace 1.10, written by Peter Selinger 2001-2011
</metadata>
<g transform="translate(0.000000,217.000000) scale(0.100000,-0.100000)"
fill="#000000" stroke="none">
<path d="M1124 2049 c-22 -11 -44 -48 -44 -74 0 -8 -57 -115 -126 -237 -604
-1065 -614 -1084 -614 -1117 0 -41 30 -67 94 -81 28 -6 132 -31 231 -56 602
-148 838 -204 865 -204 40 0 63 25 104 113 40 86 114 241 186 392 67 140 140
295 195 410 24 50 71 149 105 220 116 243 130 273 130 280 0 4 9 19 19 34 24
33 11 55 -39 67 -19 4 -38 9 -42 10 -5 1 -12 2 -18 3 -5 0 -10 7 -10 15 0 11
8 12 38 5 20 -4 38 -8 40 -9 1 0 20 0 42 0 l40 0 0 -328 c0 -317 -9 -544 -31
-742 -5 -52 -16 -158 -24 -235 -9 -77 -18 -154 -21 -171 -6 -30 -5 -31 38 -37
23 -3 59 -9 78 -12 27 -5 41 -2 60 13 l24 19 -12 194 c-7 107 -24 394 -37 639
-37 661 -35 640 -56 661 -11 11 -23 18 -28 16 -5 -1 -20 13 -33 32 -28 42 -58
62 -65 44 -3 -7 -10 -13 -17 -13 -28 0 -50 -40 -48 -88 1 -26 6 -48 12 -50 5
-2 10 -12 10 -23 0 -24 27 -36 43 -20 9 10 6 17 -15 33 -16 11 -28 27 -28 36
0 12 3 13 12 4 7 -7 23 -12 36 -12 13 0 30 -7 38 -15 14 -13 14 -16 0 -21 -9
-3 -13 -10 -10 -16 3 -5 -1 -17 -9 -26 -22 -25 -116 -219 -109 -226 3 -3 0 -6
-7 -6 -7 0 -10 -4 -7 -9 4 -5 3 -11 -1 -13 -10 -4 -83 -160 -83 -176 0 -7 -4
-12 -10 -12 -5 0 -10 -4 -10 -9 0 -9 -28 -70 -142 -311 -92 -194 -108 -228
-108 -238 0 -5 -7 -15 -15 -22 -9 -7 -13 -15 -11 -18 3 -2 -13 -40 -35 -83
-21 -43 -38 -80 -38 -81 1 -2 -14 -32 -33 -68 -36 -66 -38 -72 -38 -91 0 -5
-5 -7 -10 -4 -6 4 -9 1 -8 -7 2 -7 -3 -12 -10 -10 -8 1 -11 -2 -7 -8 3 -5 -2
-11 -12 -11 -21 -2 -15 -3 -128 26 -49 13 -109 26 -132 30 -24 4 -45 11 -49
16 -3 5 -9 7 -13 5 -4 -3 -64 10 -132 29 -68 19 -146 37 -174 41 -27 3 -54 8
-60 12 -5 3 -14 7 -20 8 -5 1 -54 13 -108 28 -55 14 -103 24 -107 21 -5 -3
-10 0 -12 6 -2 6 -20 11 -41 12 -20 0 -37 5 -37 10 0 4 -10 5 -21 2 -16 -5
-19 -4 -14 5 5 9 2 10 -14 5 -11 -3 -21 -2 -21 3 0 5 -11 7 -25 4 -14 -2 -25
0 -25 7 0 5 -6 8 -14 5 -9 -3 -21 5 -31 20 -16 24 -16 28 7 78 14 29 91 170
173 313 81 143 203 357 270 475 67 118 133 233 145 255 12 22 46 83 76 136 30
52 54 108 54 123 0 33 41 76 72 76 20 -1 19 -2 -8 -14 -40 -18 -46 -28 -49
-81 -2 -30 1 -45 11 -49 8 -3 14 -12 14 -20 0 -16 38 -42 47 -33 9 10 -8 47
-22 47 -8 0 -19 9 -25 20 -10 19 -9 20 14 14 23 -5 26 -3 26 19 0 14 3 34 6
44 5 15 4 15 -7 -2 -32 -51 -57 -57 -45 -11 4 17 15 28 34 31 15 4 35 10 44
16 10 5 28 9 40 8 20 -1 18 -3 -10 -15 -18 -8 -35 -21 -39 -29 -10 -28 -10
-80 1 -94 6 -7 15 -23 21 -34 13 -26 45 -35 45 -13 0 9 -11 23 -25 32 -31 20
-36 50 -5 34 16 -9 20 -8 20 5 0 9 -9 15 -25 15 -14 0 -25 5 -25 10 0 6 9 10
20 10 15 0 22 8 26 30 4 16 9 29 13 28 3 -1 19 2 34 7 37 10 47 -2 13 -15 -41
-15 -62 -94 -32 -120 8 -6 13 -17 10 -23 -7 -18 36 -41 49 -28 9 9 3 20 -21
42 -36 33 -37 48 -3 29 17 -9 21 -8 21 5 0 9 -9 15 -25 15 -31 0 -33 17 -2 22
17 2 22 9 20 31 -1 22 2 27 15 23 9 -3 24 -1 32 4 20 12 -16 25 -95 34 -33 4
-76 9 -95 11 -19 2 -45 -1 -56 -6z m106 -59 c0 -5 -7 -10 -16 -10 -8 0 -12 5
-9 10 3 6 10 10 16 10 5 0 9 -4 9 -10z m75 -10 c3 -5 -1 -10 -9 -10 -9 0 -16
5 -16 10 0 6 4 10 9 10 6 0 13 -4 16 -10z m936 -109 c28 -23 24 -31 -13 -24
-14 3 -28 13 -31 24 -7 25 14 25 44 0z m-61 -11 c0 -5 -4 -10 -10 -10 -5 0
-10 5 -10 10 0 6 5 10 10 10 6 0 10 -4 10 -10z m172 -322 c2 -21 0 -38 -4 -38
-4 0 -8 21 -7 48 1 52 6 48 11 -10z m34 -629 c15 -311 24 -574 21 -584 -6 -15
-15 -17 -59 -12 -76 9 -77 12 -62 157 7 69 13 131 13 138 1 8 6 10 14 6 10 -6
10 -4 0 7 -16 16 -17 33 -2 23 8 -4 8 0 0 15 -8 15 -9 21 -1 21 6 0 9 4 5 9
-3 5 0 52 5 103 6 51 11 113 11 137 1 75 17 30 21 -55 3 -69 1 -81 -12 -76
-12 4 -11 1 3 -15 20 -23 23 -48 5 -37 -10 6 -10 4 -2 -7 6 -8 11 -21 12 -29
1 -64 14 -283 18 -317 3 -24 1 -44 -6 -48 -12 -7 -4 -25 12 -25 7 0 8 45 4
143 -26 574 -40 1024 -33 1017 2 -3 17 -260 33 -571z m-43 106 c4 -8 2 -17 -3
-20 -6 -4 -10 3 -10 14 0 25 6 27 13 6z"/>
<path d="M1383 1998 c-19 -12 -34 -29 -35 -41 -4 -64 -2 -80 9 -84 7 -3 13
-14 13 -24 0 -24 27 -36 43 -20 9 10 8 14 -5 22 -32 18 -48 40 -48 66 0 20 4
24 20 20 20 -5 37 23 25 43 -3 5 0 10 7 10 7 1 27 7 43 14 l30 13 -35 0 c-19
1 -50 -8 -67 -19z m2 -28 c3 -5 -1 -10 -10 -10 -9 0 -13 5 -10 10 3 6 8 10 10
10 2 0 7 -4 10 -10z"/>
<path d="M1490 2004 c-7 -8 -18 -14 -25 -14 -22 0 -38 -29 -41 -76 -3 -33 0
-46 11 -51 9 -3 14 -12 13 -20 -4 -23 28 -41 44 -25 11 11 9 16 -7 27 -34 24
-45 35 -45 46 0 6 7 6 19 -1 11 -5 22 -6 25 -1 8 12 -4 21 -26 21 -10 0 -18 5
-18 11 0 6 9 9 19 6 23 -6 35 16 25 46 -4 12 -2 17 4 13 12 -7 42 3 42 14 0
15 -29 19 -40 4z m-22 -52 c2 -7 -2 -10 -12 -6 -9 3 -16 11 -16 16 0 13 23 5
28 -10z"/>
<path d="M1553 1987 c-17 -9 -21 -17 -17 -37 5 -23 4 -24 -9 -7 -13 16 -15 16
-21 1 -10 -26 -7 -57 9 -88 8 -15 15 -34 15 -41 0 -7 11 -15 24 -17 19 -4 22
-1 18 16 -3 11 -17 30 -31 43 -26 22 -26 22 -3 23 12 0 22 5 22 11 0 6 -9 9
-20 6 -14 -3 -20 0 -20 10 0 10 6 14 20 10 20 -5 25 5 20 47 -1 10 3 15 8 12
14 -8 43 4 36 15 -7 11 -22 10 -51 -4z"/>
<path d="M1635 1990 c19 -7 18 -8 -7 -18 -15 -6 -32 -20 -37 -31 -16 -29 -13
-87 5 -105 8 -9 13 -20 10 -25 -3 -5 1 -12 10 -15 26 -10 34 -7 34 14 0 11 -5
20 -11 20 -12 0 -38 29 -39 43 0 4 9 3 20 -3 16 -9 20 -8 20 5 0 9 -9 15 -25
15 -14 0 -25 5 -25 10 0 6 8 10 18 10 24 0 42 19 35 36 -3 8 1 14 10 14 22 0
32 20 16 31 -8 5 -23 8 -34 8 -20 0 -20 0 0 -9z m-15 -56 c0 -8 -4 -12 -10 -9
-5 3 -10 10 -10 16 0 5 5 9 10 9 6 0 10 -7 10 -16z"/>
<path d="M1708 1983 c22 -4 21 -5 -10 -27 -28 -18 -34 -29 -36 -65 -2 -30 2
-49 13 -61 9 -10 14 -24 10 -29 -8 -14 19 -25 40 -17 18 7 9 36 -12 36 -8 0
-21 16 -29 35 -18 44 -18 43 9 47 16 2 22 9 21 26 0 15 5 22 17 22 10 0 21 5
24 10 3 6 18 10 33 10 l27 -1 -30 -16 c-40 -21 -45 -30 -45 -86 0 -33 5 -49
15 -53 8 -4 15 -14 15 -24 0 -26 19 -35 37 -17 13 13 11 17 -16 36 -36 26 -41
46 -10 36 16 -5 20 -3 17 6 -3 8 -15 13 -26 11 -15 -2 -22 2 -22 12 0 11 9 16
26 16 23 0 26 3 21 26 -4 20 -1 25 12 21 9 -2 22 2 29 10 7 7 23 13 35 13 21
0 21 0 -3 -17 -36 -24 -36 -23 -21 -32 9 -6 10 -11 2 -15 -6 -4 -11 -2 -11 4
0 6 -4 8 -10 5 -15 -9 -12 -81 3 -97 8 -7 12 -18 10 -24 -5 -15 23 -37 37 -29
17 11 11 32 -15 49 -14 9 -25 21 -25 26 0 6 11 8 25 4 15 -4 25 -2 25 5 0 6
-13 11 -30 11 -20 0 -30 5 -30 15 0 18 36 20 44 3 4 -7 4 4 2 26 -5 34 -3 38
14 33 11 -3 20 -2 20 3 0 13 33 21 44 10 7 -7 6 -10 -2 -10 -7 0 -21 -9 -32
-20 -25 -25 -27 -91 -4 -114 8 -9 13 -20 10 -25 -8 -12 21 -34 34 -26 16 10
12 28 -13 50 -13 11 -27 33 -31 49 -6 26 -5 28 17 22 28 -7 45 18 27 39 -8 10
-2 14 24 19 20 4 38 12 42 18 4 7 3 8 -4 4 -6 -4 -20 -2 -30 3 -10 5 -50 12
-88 15 -38 3 -96 10 -129 16 -57 9 -116 12 -67 3z m-8 -53 c0 -5 -7 -10 -16
-10 -8 0 -12 5 -9 10 3 6 10 10 16 10 5 0 9 -4 9 -10z m74 -21 c-3 -5 -10 -7
-15 -3 -5 3 -7 10 -3 15 3 5 10 7 15 3 5 -3 7 -10 3 -15z m166 -19 c0 -5 -4
-10 -10 -10 -5 0 -10 5 -10 10 0 6 5 10 10 10 6 0 10 -4 10 -10z"/>
<path d="M2028 1921 c-21 -13 -25 -20 -16 -29 6 -6 8 -15 4 -19 -4 -4 -11 -2
-15 6 -6 10 -10 9 -15 -4 -12 -32 -7 -85 9 -91 9 -4 15 -11 14 -18 -3 -27 2
-36 21 -36 27 0 25 22 -5 48 -22 19 -29 41 -23 70 0 4 9 6 18 4 20 -3 34 34
17 45 -7 5 0 10 17 13 17 3 29 10 28 15 -2 17 -25 15 -54 -4z"/>
<path d="M2115 1918 c-5 -5 -19 -15 -30 -24 -11 -8 -14 -13 -6 -12 7 2 16 -3
18 -11 4 -9 0 -11 -16 -6 -19 6 -21 3 -21 -39 0 -25 5 -48 10 -51 6 -3 10 3
10 15 0 12 4 18 10 15 5 -3 18 -8 29 -10 14 -2 17 1 14 14 -3 10 -14 17 -30
16 -14 0 -28 6 -30 12 -3 9 4 11 26 7 30 -6 30 -6 21 25 -8 27 -6 32 8 30 9
-2 29 4 44 12 l28 14 -38 1 c-20 1 -41 -3 -47 -8z"/>
<path d="M1384 1905 c21 -16 32 -13 21 4 -3 6 -14 11 -23 11 -15 -1 -15 -2 2
-15z"/>
<path d="M1690 1871 c0 -5 7 -11 15 -15 9 -3 15 0 15 9 0 8 -7 15 -15 15 -8 0
-15 -4 -15 -9z"/>
<path d="M1935 1830 c3 -5 13 -10 21 -10 8 0 12 5 9 10 -3 6 -13 10 -21 10 -8
0 -12 -4 -9 -10z"/>
<path d="M2010 1820 c0 -5 9 -10 21 -10 11 0 17 5 14 10 -3 6 -13 10 -21 10
-8 0 -14 -4 -14 -10z"/>
<path d="M2290 1785 c-8 -9 -8 -15 -2 -15 12 0 26 19 19 26 -2 2 -10 -2 -17
-11z"/>
<path d="M2087 1757 c-6 -17 11 -37 31 -37 19 0 11 44 -9 48 -9 2 -19 -3 -22
-11z"/>
<path d="M1998 1703 c6 -2 18 -2 25 0 6 3 1 5 -13 5 -14 0 -19 -2 -12 -5z"/>
<path d="M2068 1703 c7 -3 16 -2 19 1 4 3 -2 6 -13 5 -11 0 -14 -3 -6 -6z"/>
<path d="M2165 1690 c10 -11 20 -20 23 -20 3 0 -3 9 -13 20 -10 11 -20 20 -23
20 -3 0 3 -9 13 -20z"/>
<path d="M2261 1668 c-5 -18 -15 -100 -21 -183 -35 -487 -163 -1233 -235
-1374 l-25 -50 -67 20 c-38 11 -129 36 -203 55 -74 19 -193 50 -265 69 -344
91 -514 135 -560 145 -71 15 -80 22 -65 50 6 12 9 24 7 27 -3 3 -13 -10 -22
-27 -9 -18 -13 -36 -8 -41 4 -4 53 -19 108 -32 132 -32 731 -189 964 -252 82
-23 107 -26 120 -17 9 7 40 23 69 37 30 13 83 45 118 70 36 25 70 45 77 45 9
0 9 2 0 8 -9 6 -10 17 -4 40 6 18 6 32 1 32 -5 0 -14 -17 -21 -38 -10 -34 -22
-45 -100 -92 -50 -29 -92 -50 -95 -47 -3 2 -2 17 2 31 6 25 7 25 20 9 7 -10
14 -13 14 -8 0 6 -5 16 -10 21 -7 7 -7 27 2 62 6 29 15 48 18 42 11 -19 33 75
25 111 -4 22 -3 29 3 21 12 -17 24 52 16 88 -5 20 -3 22 5 10 9 -12 11 -11 12
10 5 92 9 115 19 141 7 16 9 36 6 45 -4 9 -2 22 3 28 9 10 53 311 67 461 5 51
9 64 16 50 7 -16 7 -15 3 5 -16 68 -10 143 7 90 6 -21 7 -20 2 5 -11 61 0 280
16 329 12 36 12 36 1 36 -5 0 -14 -15 -20 -32z m-164 -1335 c-3 -10 -5 -4 -5
12 0 17 2 24 5 18 2 -7 2 -21 0 -30z"/>
<path d="M2154 1646 c-10 -8 -15 -18 -11 -22 4 -4 15 0 24 9 22 21 12 31 -13
13z"/>
<path d="M2121 1553 c-10 -26 -10 -27 4 -9 8 11 15 23 15 28 0 15 -7 8 -19
-19z"/>
<path d="M2092 1505 c-11 -12 -10 -15 3 -15 8 0 15 7 15 15 0 18 -2 18 -18 0z"/>
<path d="M2205 1480 c-3 -5 -1 -10 4 -10 6 0 11 5 11 10 0 6 -2 10 -4 10 -3 0
-8 -4 -11 -10z"/>
<path d="M2073 1458 c-8 -19 -18 -24 -40 -23 -15 1 -19 0 -8 -2 11 -3 23 -10
26 -15 8 -13 42 37 37 53 -2 6 -9 0 -15 -13z"/>
<path d="M2148 1413 c7 -3 16 -2 19 1 4 3 -2 6 -13 5 -11 0 -14 -3 -6 -6z"/>
<path d="M2188 1403 c7 -3 16 -2 19 1 4 3 -2 6 -13 5 -11 0 -14 -3 -6 -6z"/>
<path d="M2038 1393 c7 -3 16 -2 19 1 4 3 -2 6 -13 5 -11 0 -14 -3 -6 -6z"/>
<path d="M2123 1343 c9 -2 25 -2 35 0 9 3 1 5 -18 5 -19 0 -27 -2 -17 -5z"/>
<path d="M2188 1333 c7 -3 16 -2 19 1 4 3 -2 6 -13 5 -11 0 -14 -3 -6 -6z"/>
<path d="M1999 1303 c-22 -46 -22 -50 1 -15 13 18 20 35 18 37 -3 3 -11 -7
-19 -22z"/>
<path d="M1595 1290 c-3 -5 -1 -10 4 -10 6 0 11 5 11 10 0 6 -2 10 -4 10 -3 0
-8 -4 -11 -10z"/>
<path d="M1958 1293 c7 -3 16 -2 19 1 4 3 -2 6 -13 5 -11 0 -14 -3 -6 -6z"/>
<path d="M1021 1264 c0 -11 3 -14 6 -6 3 7 2 16 -1 19 -3 4 -6 -2 -5 -13z"/>
<path d="M2092 1274 c3 -3 30 -7 59 -9 42 -3 47 -2 24 4 -35 10 -91 13 -83 5z"/>
<path d="M1958 1223 c7 -3 16 -2 19 1 4 3 -2 6 -13 5 -11 0 -14 -3 -6 -6z"/>
<path d="M2065 1210 c-5 -8 85 -23 93 -15 9 8 -1 12 -45 18 -24 3 -45 2 -48
-3z"/>
<path d="M685 1200 c-3 -5 -1 -10 4 -10 6 0 11 5 11 10 0 6 -2 10 -4 10 -3 0
-8 -4 -11 -10z"/>
<path d="M1934 1175 c-14 -15 -18 -26 -10 -29 7 -3 7 -5 -1 -5 -14 -1 -18 -21
-5 -21 5 0 16 18 25 40 8 22 15 40 14 40 -1 0 -12 -11 -23 -25z"/>
<path d="M2170 1190 c0 -5 5 -10 10 -10 6 0 10 5 10 10 0 6 -4 10 -10 10 -5 0
-10 -4 -10 -10z"/>
<path d="M1002 1125 c0 -16 2 -22 5 -12 2 9 2 23 0 30 -3 6 -5 -1 -5 -18z"/>
<path d="M1618 1133 c7 -3 16 -2 19 1 4 3 -2 6 -13 5 -11 0 -14 -3 -6 -6z"/>
<path d="M2045 1130 c37 -9 81 -12 72 -4 -3 3 -27 7 -54 9 -39 3 -42 2 -18 -5z"/>
<path d="M636 1113 c-6 -14 -5 -15 5 -6 7 7 10 15 7 18 -3 3 -9 -2 -12 -12z"/>
<path d="M2135 1120 c-4 -6 6 -10 22 -10 22 0 25 2 13 10 -19 12 -27 12 -35 0z"/>
<path d="M2281 1084 c0 -11 3 -14 6 -6 3 7 2 16 -1 19 -3 4 -6 -2 -5 -13z"/>
<path d="M616 1073 c-6 -14 -5 -15 5 -6 7 7 10 15 7 18 -3 3 -9 -2 -12 -12z"/>
<path d="M1858 1083 c7 -3 16 -2 19 1 4 3 -2 6 -13 5 -11 0 -14 -3 -6 -6z"/>
<path d="M1890 1075 c0 -8 2 -15 4 -15 2 0 6 7 10 15 3 8 1 15 -4 15 -6 0 -10
-7 -10 -15z"/>
<path d="M989 1050 c-7 -35 -4 -48 7 -38 3 4 4 21 2 40 l-3 33 -6 -35z"/>
<path d="M2050 1055 c54 -14 98 -19 89 -11 -5 6 -48 14 -104 21 -32 4 -29 2
15 -10z"/>
<path d="M1874 1036 c-11 -12 -25 -56 -18 -56 5 0 36 61 32 65 -2 2 -8 -2 -14
-9z"/>
<path d="M2241 1034 c0 -11 3 -14 6 -6 3 7 2 16 -1 19 -3 4 -6 -2 -5 -13z"/>
<path d="M575 1009 c-4 -6 -5 -12 -2 -15 2 -3 7 2 10 11 7 17 1 20 -8 4z"/>
<path d="M1953 993 c4 -3 24 -8 45 -9 28 -2 32 -1 17 6 -24 10 -71 13 -62 3z"/>
<path d="M977 984 c-4 -4 -7 -14 -7 -23 0 -11 3 -12 11 -4 6 6 10 16 7 23 -2
6 -7 8 -11 4z"/>
<path d="M2053 973 c9 -2 23 -2 30 0 6 3 -1 5 -18 5 -16 0 -22 -2 -12 -5z"/>
<path d="M2108 963 c6 -2 18 -2 25 0 6 3 1 5 -13 5 -14 0 -19 -2 -12 -5z"/>
<path d="M1827 946 c-4 -10 -1 -13 9 -9 15 6 19 23 5 23 -5 0 -11 -7 -14 -14z"/>
<path d="M2231 944 c0 -11 3 -14 6 -6 3 7 2 16 -1 19 -3 4 -6 -2 -5 -13z"/>
<path d="M1495 940 c27 -12 43 -12 25 0 -8 5 -22 9 -30 9 -10 0 -8 -3 5 -9z"/>
<path d="M1168 933 c6 -2 18 -2 25 0 6 3 1 5 -13 5 -14 0 -19 -2 -12 -5z"/>
<path d="M1925 930 c-3 -5 -1 -10 4 -10 6 0 11 5 11 10 0 6 -2 10 -4 10 -3 0
-8 -4 -11 -10z"/>
<path d="M530 919 c0 -5 5 -7 10 -4 6 3 10 8 10 11 0 2 -4 4 -10 4 -5 0 -10
-5 -10 -11z"/>
<path d="M963 909 c-1 -10 2 -19 8 -19 11 0 12 27 1 34 -4 2 -9 -4 -9 -15z"/>
<path d="M1970 920 c0 -4 21 -10 48 -13 26 -3 63 -9 82 -13 19 -4 33 -4 30 -1
-8 9 -160 35 -160 27z"/>
<path d="M1798 913 c17 -7 15 -23 -4 -23 -8 0 -12 -4 -9 -10 10 -16 21 -12 32
13 9 20 8 23 -11 24 -11 1 -15 -1 -8 -4z"/>
<path d="M2223 875 c0 -22 2 -30 4 -17 2 12 2 30 0 40 -3 9 -5 -1 -4 -23z"/>
<path d="M1748 893 c7 -3 16 -2 19 1 4 3 -2 6 -13 5 -11 0 -14 -3 -6 -6z"/>
<path d="M955 870 c3 -5 8 -10 11 -10 2 0 4 5 4 10 0 6 -5 10 -11 10 -5 0 -7
-4 -4 -10z"/>
<path d="M1891 866 c9 -9 118 -35 172 -40 23 -2 51 -8 62 -12 15 -5 17 -4 9 5
-6 7 -56 19 -110 27 -54 8 -108 17 -119 21 -11 3 -17 2 -14 -1z"/>
<path d="M946 828 c-3 -13 -7 -34 -9 -48 -3 -14 -14 -53 -25 -87 -11 -35 -16
-63 -12 -63 7 0 36 95 47 155 3 17 10 35 15 42 5 7 5 14 -1 18 -6 3 -13 -4
-15 -17z"/>
<path d="M477 833 c-4 -3 -7 -11 -7 -17 0 -6 5 -5 12 2 6 6 9 14 7 17 -3 3 -9
2 -12 -2z"/>
<path d="M1367 819 c7 -7 15 -10 18 -7 3 3 -2 9 -12 12 -14 6 -15 5 -6 -5z"/>
<path d="M2212 800 c0 -19 2 -27 5 -17 2 9 2 25 0 35 -3 9 -5 1 -5 -18z"/>
<path d="M2246 754 c-4 -42 -5 -78 -2 -81 2 -2 7 30 11 72 4 42 5 78 3 81 -3
2 -8 -30 -12 -72z"/>
<path d="M1764 806 c-3 -9 -9 -14 -13 -12 -4 3 -7 -3 -7 -12 -1 -9 -4 -25 -9
-34 -5 -12 -3 -18 6 -18 7 0 10 3 6 6 -3 3 3 22 14 41 11 20 18 38 15 41 -3 2
-8 -3 -12 -12z"/>
<path d="M1889 788 c81 -23 241 -54 241 -47 0 4 -26 13 -57 19 -32 6 -88 18
-125 26 -75 16 -111 17 -59 2z"/>
<path d="M1498 783 c6 -2 18 -2 25 0 6 3 1 5 -13 5 -14 0 -19 -2 -12 -5z"/>
<path d="M426 744 c-10 -14 -16 -28 -13 -30 2 -3 12 7 21 22 10 14 16 28 13
30 -2 3 -12 -7 -21 -22z"/>
<path d="M2202 725 c0 -16 2 -22 5 -12 2 9 2 23 0 30 -3 6 -5 -1 -5 -18z"/>
<path d="M1428 733 c7 -3 16 -2 19 1 4 3 -2 6 -13 5 -11 0 -14 -3 -6 -6z"/>
<path d="M1715 701 c-3 -12 -12 -21 -18 -21 -7 0 -12 -10 -13 -22 0 -13 -4
-32 -8 -43 -4 -11 7 6 24 39 17 32 29 60 27 63 -3 2 -8 -5 -12 -16z"/>
<path d="M1848 713 c7 -3 16 -2 19 1 4 3 -2 6 -13 5 -11 0 -14 -3 -6 -6z"/>
<path d="M1925 695 c28 -7 59 -13 70 -13 20 -1 20 -1 0 7 -11 5 -42 11 -70 14
l-50 6 50 -14z"/>
<path d="M392 688 c-6 -7 -12 -29 -14 -48 -2 -26 1 -35 12 -35 8 0 13 7 11 15
-8 33 -8 56 2 68 5 6 7 12 4 12 -2 0 -9 -6 -15 -12z"/>
<path d="M2040 671 c53 -17 85 -22 75 -13 -5 6 -30 13 -55 16 -30 4 -37 3 -20
-3z"/>
<path d="M1810 652 c0 -10 41 -24 49 -17 6 7 0 11 -26 19 -13 4 -23 3 -23 -2z"/>
<path d="M2192 640 c0 -14 2 -19 5 -12 2 6 2 18 0 25 -3 6 -5 1 -5 -13z"/>
<path d="M2232 640 c0 -14 2 -19 5 -12 2 6 2 18 0 25 -3 6 -5 1 -5 -13z"/>
<path d="M1885 630 c3 -5 10 -10 16 -10 5 0 9 5 9 10 0 6 -7 10 -16 10 -8 0
-12 -4 -9 -10z"/>
<path d="M1558 623 c7 -3 16 -2 19 1 4 3 -2 6 -13 5 -11 0 -14 -3 -6 -6z"/>
<path d="M1945 620 c11 -5 29 -8 40 -8 16 0 15 2 -5 8 -34 11 -60 11 -35 0z"/>
<path d="M886 594 c-4 -14 -5 -28 -3 -31 3 -2 8 8 11 23 4 14 5 28 3 31 -3 2
-8 -8 -11 -23z"/>
<path d="M445 595 c17 -8 37 -14 45 -14 8 0 -1 7 -20 14 -46 18 -64 17 -25 0z"/>
<path d="M2020 607 c3 -3 23 -10 44 -16 22 -5 35 -6 30 -2 -9 9 -83 27 -74 18z"/>
<path d="M1652 577 c-7 -8 -9 -17 -5 -20 3 -4 2 -7 -4 -7 -6 0 -16 -14 -22
-31 -13 -38 -13 -39 -3 -39 4 0 8 10 9 22 1 11 6 24 11 27 12 8 35 52 29 57
-2 3 -9 -2 -15 -9z"/>
<path d="M1761 586 c9 -9 157 -42 170 -37 8 2 -22 13 -66 22 -80 18 -112 23
-104 15z"/>
<path d="M2181 574 c0 -11 3 -14 6 -6 3 7 2 16 -1 19 -3 4 -6 -2 -5 -13z"/>
<path d="M558 563 c7 -3 16 -2 19 1 4 3 -2 6 -13 5 -11 0 -14 -3 -6 -6z"/>
<path d="M608 553 c7 -3 16 -2 19 1 4 3 -2 6 -13 5 -11 0 -14 -3 -6 -6z"/>
<path d="M646 551 c-3 -5 4 -11 17 -15 33 -9 47 -7 47 5 0 5 -4 7 -10 4 -5 -3
-18 -1 -29 5 -11 6 -22 6 -25 1z"/>
<path d="M1960 542 c8 -5 35 -12 60 -15 54 -7 24 7 -35 17 -25 4 -34 3 -25 -2z"/>
<path d="M1723 523 c8 -12 156 -48 164 -40 2 3 -31 13 -74 22 -43 10 -82 20
-87 23 -5 3 -6 0 -3 -5z"/>
<path d="M2170 516 c0 -9 5 -16 10 -16 6 0 10 4 10 9 0 6 -4 13 -10 16 -5 3
-10 -1 -10 -9z"/>
<path d="M788 503 c7 -3 16 -2 19 1 4 3 -2 6 -13 5 -11 0 -14 -3 -6 -6z"/>
<path d="M845 500 c-3 -5 -1 -10 4 -10 6 0 11 5 11 10 0 6 -2 10 -4 10 -3 0
-8 -4 -11 -10z"/>
<path d="M887 489 c7 -7 15 -10 18 -7 3 3 -2 9 -12 12 -14 6 -15 5 -6 -5z"/>
<path d="M1255 490 c-3 -5 -1 -10 4 -10 6 0 11 5 11 10 0 6 -2 10 -4 10 -3 0
-8 -4 -11 -10z"/>
<path d="M928 473 c7 -3 16 -2 19 1 4 3 -2 6 -13 5 -11 0 -14 -3 -6 -6z"/>
<path d="M1975 459 c44 -11 86 -18 95 -16 16 4 -65 22 -135 31 -22 3 -4 -4 40
-15z"/>
<path d="M968 463 c7 -3 16 -2 19 1 4 3 -2 6 -13 5 -11 0 -14 -3 -6 -6z"/>
<path d="M1696 449 c3 -5 9 -7 13 -5 4 3 50 -6 102 -19 52 -14 103 -24 114
-24 21 0 -160 48 -208 54 -15 2 -25 -1 -21 -6z"/>
<path d="M2171 444 c0 -11 3 -14 6 -6 3 7 2 16 -1 19 -3 4 -6 -2 -5 -13z"/>
<path d="M2212 435 c0 -16 2 -22 5 -12 2 9 2 23 0 30 -3 6 -5 -1 -5 -18z"/>
<path d="M1060 446 c0 -2 7 -6 15 -10 8 -3 15 -1 15 4 0 6 -7 10 -15 10 -8 0
-15 -2 -15 -4z"/>
<path d="M1590 441 c0 -7 -4 -9 -10 -6 -6 4 -7 -1 -3 -12 6 -16 5 -16 -10 -4
-9 7 -17 11 -17 8 0 -13 13 -37 19 -37 10 0 33 51 26 58 -3 3 -5 0 -5 -7z"/>
<path d="M1160 430 c-12 -8 -12 -10 3 -16 10 -3 21 -4 24 0 4 3 1 6 -6 6 -7 0
-9 5 -6 10 8 12 4 12 -15 0z"/>
<path d="M1230 410 c-13 -8 -12 -10 3 -10 9 0 17 5 17 10 0 12 -1 12 -20 0z"/>
<path d="M1666 392 c-6 -10 41 -23 78 -21 15 1 13 3 -9 9 -16 4 -37 11 -46 14
-10 4 -20 3 -23 -2z"/>
<path d="M1961 390 c9 -5 36 -12 60 -15 29 -4 37 -3 24 3 -29 13 -104 23 -84
12z"/>
<path d="M2203 360 c0 -25 2 -35 4 -22 2 12 2 32 0 45 -2 12 -4 2 -4 -23z"/>
<path d="M1291 386 c2 -2 18 -6 34 -10 22 -5 26 -4 15 4 -14 9 -59 15 -49 6z"/>
<path d="M1398 363 c7 -3 16 -2 19 1 4 3 -2 6 -13 5 -11 0 -14 -3 -6 -6z"/>
<path d="M1772 365 c4 -4 24 -11 45 -15 21 -4 52 -10 68 -14 27 -6 26 -5 -5 7
-42 17 -118 32 -108 22z"/>
<path d="M1530 350 c-23 -7 -23 -8 -3 -9 12 -1 25 4 28 9 3 6 5 10 3 9 -2 -1
-14 -5 -28 -9z"/>
<path d="M1621 326 c6 -5 157 -46 171 -46 27 0 -5 12 -81 30 -85 21 -97 23
-90 16z"/>
<path d="M1935 321 c11 -4 38 -11 60 -14 25 -4 33 -4 20 2 -11 4 -38 11 -60
14 -25 4 -33 4 -20 -2z"/>
<path d="M1810 280 c0 -7 71 -22 77 -16 2 2 -14 8 -37 14 -22 5 -40 6 -40 2z"/>
<path d="M2141 274 c0 -11 3 -14 6 -6 3 7 2 16 -1 19 -3 4 -6 -2 -5 -13z"/>
<path d="M2192 270 c0 -14 2 -19 5 -12 2 6 2 18 0 25 -3 6 -5 1 -5 -13z"/>
<path d="M1568 263 c7 -3 16 -2 19 1 4 3 -2 6 -13 5 -11 0 -14 -3 -6 -6z"/>
<path d="M1606 260 c8 -8 252 -80 270 -80 2 0 4 4 4 9 0 5 -17 12 -37 15 -36
7 -89 20 -197 51 -27 8 -45 10 -40 5z"/>
<path d="M2290 260 c-9 -6 -10 -10 -3 -10 6 0 15 5 18 10 8 12 4 12 -15 0z"/>
<path d="M1959 239 c36 -10 67 -16 69 -14 5 5 -6 9 -63 24 -69 18 -73 10 -6
-10z"/>
<path d="M2081 234 c0 -11 3 -14 6 -6 3 7 2 16 -1 19 -3 4 -6 -2 -5 -13z"/>
<path d="M2066 202 c-2 -4 -1 -14 5 -22 7 -12 9 -10 9 8 0 23 -5 28 -14 14z"/>
<path d="M1910 179 c0 -5 8 -9 18 -9 10 0 23 -5 29 -11 6 -6 13 -7 16 -1 4 5
-9 14 -28 20 -20 6 -35 6 -35 1z"/>
<path d="M1995 160 c3 -5 8 -10 11 -10 2 0 4 5 4 10 0 6 -5 10 -11 10 -5 0 -7
-4 -4 -10z"/>
</g>
</svg>
